<mxfile host="app.diagrams.net" agent="Mozilla/5.0 (X11; Linux x86_64; rv:139.0) Gecko/20100101 Firefox/139.0" version="28.2.7">
  <diagram name="Página-1" id="paPP1KsMQQtCQt4SMTg-">
    <mxGraphModel dx="872" dy="476" grid="1" gridSize="10" guides="1" tooltips="1" connect="1" arrows="1" fold="1" page="1" pageScale="1" pageWidth="827" pageHeight="1169" math="0" shadow="0">
      <root>
        <mxCell id="0" />
        <mxCell id="1" parent="0" />
        <mxCell id="lul4We6jXFLeoNddsFLB-1" value="Serpiente" style="shape=umlActor;verticalLabelPosition=bottom;verticalAlign=top;html=1;outlineConnect=0;labelBackgroundColor=none;fillColor=#F45B69;strokeColor=#028090;fontColor=#E4FDE1;" parent="1" vertex="1">
          <mxGeometry x="70" y="90" width="30" height="60" as="geometry" />
        </mxCell>
        <mxCell id="lul4We6jXFLeoNddsFLB-7" value="&lt;div&gt;BaseDatos&lt;/div&gt;&lt;div&gt;&lt;br&gt;&lt;/div&gt;" style="shape=umlActor;verticalLabelPosition=bottom;verticalAlign=top;html=1;outlineConnect=0;labelBackgroundColor=none;fillColor=#F45B69;strokeColor=#028090;fontColor=#E4FDE1;" parent="1" vertex="1">
          <mxGeometry x="60" y="350" width="30" height="60" as="geometry" />
        </mxCell>
        <mxCell id="lul4We6jXFLeoNddsFLB-8" value="Iniciar Partida" style="ellipse;whiteSpace=wrap;html=1;labelBackgroundColor=none;fillColor=#F45B69;strokeColor=#028090;fontColor=#E4FDE1;" parent="1" vertex="1">
          <mxGeometry x="430" y="200" width="90" height="60" as="geometry" />
        </mxCell>
        <mxCell id="lul4We6jXFLeoNddsFLB-9" value="Opciones" style="ellipse;whiteSpace=wrap;html=1;labelBackgroundColor=none;fillColor=#F45B69;strokeColor=#028090;fontColor=#E4FDE1;" parent="1" vertex="1">
          <mxGeometry x="570" y="60" width="100" height="60" as="geometry" />
        </mxCell>
        <mxCell id="lul4We6jXFLeoNddsFLB-10" value="Insertar Usuario" style="ellipse;whiteSpace=wrap;html=1;labelBackgroundColor=none;fillColor=#F45B69;strokeColor=#028090;fontColor=#E4FDE1;" parent="1" vertex="1">
          <mxGeometry x="245" y="310" width="80" height="40" as="geometry" />
        </mxCell>
        <mxCell id="lul4We6jXFLeoNddsFLB-11" value="Insertar opciones" style="ellipse;whiteSpace=wrap;html=1;labelBackgroundColor=none;fillColor=#F45B69;strokeColor=#028090;fontColor=#E4FDE1;" parent="1" vertex="1">
          <mxGeometry x="240" y="250" width="90" height="40" as="geometry" />
        </mxCell>
        <mxCell id="lul4We6jXFLeoNddsFLB-12" value="Insertar Serpiente" style="ellipse;whiteSpace=wrap;html=1;labelBackgroundColor=none;fillColor=#F45B69;strokeColor=#028090;fontColor=#E4FDE1;" parent="1" vertex="1">
          <mxGeometry x="240" y="360" width="90" height="50" as="geometry" />
        </mxCell>
        <mxCell id="lul4We6jXFLeoNddsFLB-13" value="Información" style="ellipse;whiteSpace=wrap;html=1;labelBackgroundColor=none;fillColor=#F45B69;strokeColor=#028090;fontColor=#E4FDE1;" parent="1" vertex="1">
          <mxGeometry x="580" y="340" width="90" height="50" as="geometry" />
        </mxCell>
        <mxCell id="lul4We6jXFLeoNddsFLB-14" value="Usuario" style="shape=umlActor;verticalLabelPosition=bottom;verticalAlign=top;html=1;outlineConnect=0;labelBackgroundColor=none;fillColor=#F45B69;strokeColor=#028090;fontColor=#E4FDE1;" parent="1" vertex="1">
          <mxGeometry x="750" y="200" width="30" height="60" as="geometry" />
        </mxCell>
        <mxCell id="lul4We6jXFLeoNddsFLB-15" value="" style="endArrow=classic;html=1;rounded=0;exitX=0.5;exitY=0.5;exitDx=0;exitDy=0;exitPerimeter=0;labelBackgroundColor=none;strokeColor=#028090;fontColor=default;" parent="1" source="lul4We6jXFLeoNddsFLB-14" target="lul4We6jXFLeoNddsFLB-8" edge="1">
          <mxGeometry width="50" height="50" relative="1" as="geometry">
            <mxPoint x="680" y="180" as="sourcePoint" />
            <mxPoint x="730" y="130" as="targetPoint" />
          </mxGeometry>
        </mxCell>
        <mxCell id="lul4We6jXFLeoNddsFLB-16" value="" style="endArrow=classic;html=1;rounded=0;exitX=0.5;exitY=0.5;exitDx=0;exitDy=0;exitPerimeter=0;labelBackgroundColor=none;strokeColor=#028090;fontColor=default;" parent="1" source="lul4We6jXFLeoNddsFLB-14" target="lul4We6jXFLeoNddsFLB-9" edge="1">
          <mxGeometry width="50" height="50" relative="1" as="geometry">
            <mxPoint x="660" y="190" as="sourcePoint" />
            <mxPoint x="710" y="140" as="targetPoint" />
          </mxGeometry>
        </mxCell>
        <mxCell id="lul4We6jXFLeoNddsFLB-17" value="" style="endArrow=classic;html=1;rounded=0;labelBackgroundColor=none;strokeColor=#028090;fontColor=default;" parent="1" source="lul4We6jXFLeoNddsFLB-9" target="lul4We6jXFLeoNddsFLB-8" edge="1">
          <mxGeometry width="50" height="50" relative="1" as="geometry">
            <mxPoint x="470" y="160" as="sourcePoint" />
            <mxPoint x="520" y="110" as="targetPoint" />
          </mxGeometry>
        </mxCell>
        <mxCell id="lul4We6jXFLeoNddsFLB-18" value="" style="endArrow=classic;html=1;rounded=0;entryX=1;entryY=0;entryDx=0;entryDy=0;exitX=0.5;exitY=0.5;exitDx=0;exitDy=0;exitPerimeter=0;labelBackgroundColor=none;strokeColor=#028090;fontColor=default;" parent="1" source="lul4We6jXFLeoNddsFLB-14" target="lul4We6jXFLeoNddsFLB-13" edge="1">
          <mxGeometry width="50" height="50" relative="1" as="geometry">
            <mxPoint x="520" y="390" as="sourcePoint" />
            <mxPoint x="570" y="340" as="targetPoint" />
            <Array as="points" />
          </mxGeometry>
        </mxCell>
        <mxCell id="lul4We6jXFLeoNddsFLB-19" value="" style="endArrow=classic;html=1;rounded=0;entryX=1;entryY=1;entryDx=0;entryDy=0;labelBackgroundColor=none;strokeColor=#028090;fontColor=default;" parent="1" source="lul4We6jXFLeoNddsFLB-13" target="lul4We6jXFLeoNddsFLB-8" edge="1">
          <mxGeometry width="50" height="50" relative="1" as="geometry">
            <mxPoint x="430" y="260" as="sourcePoint" />
            <mxPoint x="480" y="210" as="targetPoint" />
          </mxGeometry>
        </mxCell>
        <mxCell id="lul4We6jXFLeoNddsFLB-20" value="" style="endArrow=classic;html=1;rounded=0;entryX=0;entryY=0.5;entryDx=0;entryDy=0;labelBackgroundColor=none;strokeColor=#028090;fontColor=default;exitX=0.5;exitY=0.5;exitDx=0;exitDy=0;exitPerimeter=0;" parent="1" source="lul4We6jXFLeoNddsFLB-7" target="lul4We6jXFLeoNddsFLB-12" edge="1">
          <mxGeometry width="50" height="50" relative="1" as="geometry">
            <mxPoint x="80" y="380" as="sourcePoint" />
            <mxPoint x="150" y="370" as="targetPoint" />
          </mxGeometry>
        </mxCell>
        <mxCell id="lul4We6jXFLeoNddsFLB-22" value="" style="endArrow=classic;html=1;rounded=0;labelBackgroundColor=none;strokeColor=#028090;fontColor=default;exitX=0.5;exitY=0.5;exitDx=0;exitDy=0;exitPerimeter=0;" parent="1" source="lul4We6jXFLeoNddsFLB-7" target="lul4We6jXFLeoNddsFLB-10" edge="1">
          <mxGeometry width="50" height="50" relative="1" as="geometry">
            <mxPoint x="80" y="350" as="sourcePoint" />
            <mxPoint x="130" y="300" as="targetPoint" />
          </mxGeometry>
        </mxCell>
        <mxCell id="g1gtE3oTbzHQJsl7Ls6s-2" value="" style="edgeLabel;html=1;align=center;verticalAlign=middle;resizable=0;points=[];strokeColor=#028090;fontColor=#E4FDE1;fillColor=#F45B69;" vertex="1" connectable="0" parent="lul4We6jXFLeoNddsFLB-22">
          <mxGeometry x="-0.7968" y="1" relative="1" as="geometry">
            <mxPoint as="offset" />
          </mxGeometry>
        </mxCell>
        <mxCell id="lul4We6jXFLeoNddsFLB-23" value="" style="endArrow=classic;html=1;rounded=0;labelBackgroundColor=none;strokeColor=#028090;fontColor=default;exitX=0.5;exitY=0.5;exitDx=0;exitDy=0;exitPerimeter=0;" parent="1" source="lul4We6jXFLeoNddsFLB-7" target="lul4We6jXFLeoNddsFLB-11" edge="1">
          <mxGeometry width="50" height="50" relative="1" as="geometry">
            <mxPoint x="80" y="350" as="sourcePoint" />
            <mxPoint x="130" y="300" as="targetPoint" />
          </mxGeometry>
        </mxCell>
        <mxCell id="lul4We6jXFLeoNddsFLB-25" value="Insertar Serpiente" style="ellipse;whiteSpace=wrap;html=1;labelBackgroundColor=none;fillColor=#F45B69;strokeColor=#028090;fontColor=#E4FDE1;" parent="1" vertex="1">
          <mxGeometry x="210" y="110" width="90" height="50" as="geometry" />
        </mxCell>
        <mxCell id="g1gtE3oTbzHQJsl7Ls6s-1" value="Se mueve" style="ellipse;whiteSpace=wrap;html=1;labelBackgroundColor=none;fillColor=#F45B69;strokeColor=#028090;fontColor=#E4FDE1;" vertex="1" parent="1">
          <mxGeometry x="210" y="50" width="90" height="50" as="geometry" />
        </mxCell>
        <mxCell id="g1gtE3oTbzHQJsl7Ls6s-3" value="&lt;span style=&quot;color: rgb(0, 0, 0);&quot;&gt;Serpiente&lt;/span&gt;" style="text;html=1;whiteSpace=wrap;strokeColor=none;fillColor=none;align=center;verticalAlign=middle;rounded=0;fontColor=#E4FDE1;" vertex="1" parent="1">
          <mxGeometry x="55" y="150" width="60" height="30" as="geometry" />
        </mxCell>
        <mxCell id="g1gtE3oTbzHQJsl7Ls6s-4" value="&lt;span style=&quot;color: rgb(0, 0, 0);&quot;&gt;Base de datos&lt;/span&gt;" style="text;html=1;whiteSpace=wrap;strokeColor=none;fillColor=none;align=center;verticalAlign=middle;rounded=0;fontColor=#E4FDE1;" vertex="1" parent="1">
          <mxGeometry x="45" y="420" width="60" height="30" as="geometry" />
        </mxCell>
        <mxCell id="g1gtE3oTbzHQJsl7Ls6s-5" value="&lt;span style=&quot;color: rgb(0, 0, 0);&quot;&gt;Usuari&lt;/span&gt;&lt;span style=&quot;color: rgb(0, 0, 0);&quot;&gt;o&lt;/span&gt;" style="text;html=1;whiteSpace=wrap;strokeColor=none;fillColor=none;align=center;verticalAlign=middle;rounded=0;fontColor=#E4FDE1;" vertex="1" parent="1">
          <mxGeometry x="740" y="260" width="60" height="30" as="geometry" />
        </mxCell>
        <mxCell id="g1gtE3oTbzHQJsl7Ls6s-6" value="" style="endArrow=classic;html=1;rounded=0;strokeColor=#028090;fontColor=#E4FDE1;fillColor=#F45B69;exitX=0.5;exitY=0.5;exitDx=0;exitDy=0;exitPerimeter=0;entryX=0;entryY=0.5;entryDx=0;entryDy=0;" edge="1" parent="1" source="lul4We6jXFLeoNddsFLB-1" target="g1gtE3oTbzHQJsl7Ls6s-1">
          <mxGeometry width="50" height="50" relative="1" as="geometry">
            <mxPoint x="130" y="160" as="sourcePoint" />
            <mxPoint x="440" y="230" as="targetPoint" />
          </mxGeometry>
        </mxCell>
        <mxCell id="g1gtE3oTbzHQJsl7Ls6s-7" value="" style="endArrow=classic;html=1;rounded=0;strokeColor=#028090;fontColor=#E4FDE1;fillColor=#F45B69;exitX=0.5;exitY=0.5;exitDx=0;exitDy=0;exitPerimeter=0;entryX=0;entryY=0.5;entryDx=0;entryDy=0;" edge="1" parent="1" source="lul4We6jXFLeoNddsFLB-1" target="lul4We6jXFLeoNddsFLB-25">
          <mxGeometry width="50" height="50" relative="1" as="geometry">
            <mxPoint x="390" y="280" as="sourcePoint" />
            <mxPoint x="200" y="140" as="targetPoint" />
          </mxGeometry>
        </mxCell>
      </root>
    </mxGraphModel>
  </diagram>
</mxfile>
